<?xml version="1.0" encoding="UTF-8" standalone="no" ?>
<!DOCTYPE svg PUBLIC "-//W3C//DTD SVG 1.1//EN" "http://www.w3.org/Graphics/SVG/1.1/DTD/svg11.dtd">
<svg xmlns="http://www.w3.org/2000/svg" xmlns:xlink="http://www.w3.org/1999/xlink" version="1.1" width="19.58786" height="32" viewBox="172.62000968750002 166.22 20.199980625 33" xml:space="preserve">
<desc>Created with Fabric.js 4.6.0</desc>
<defs>
</defs>
<g transform="matrix(1 0 0 1 182.72 182.72)" id="mrO_Qpnq-VCYNRM_EZu_k"  >
<path style="stroke: none; stroke-width: 1; stroke-dasharray: none; stroke-linecap: butt; stroke-dashoffset: 0; stroke-linejoin: miter; stroke-miterlimit: 4; fill: rgb(0,0,0); fill-rule: nonzero; opacity: 1;" vector-effect="non-scaling-stroke"  transform=" translate(-9.6, -16)" d="M 18.24969 0.95008 C 17.61673 0.31648 16.86644 0 15.999880000000001 0 L 3.20021 0 C 2.33333 0 1.5834600000000003 0.31669 0.9500800000000003 0.95008 C 0.31669000000000025 1.58304 2.220446049250313e-16 2.3332300000000004 2.220446049250313e-16 3.19989 L 2.220446049250313e-16 28.8 C 2.220446049250313e-16 29.66656 0.31669000000000025 30.41664 0.9500800000000003 31.04981 C 1.5834700000000002 31.6832 2.33333 32 3.20021 32 L 15.999880000000001 32 C 16.86644 32 17.61684 31.68288 18.24969 31.04981 C 18.88308 30.41664 19.19998 29.66656 19.19998 28.8 L 19.19998 3.19989 C 19.19998 2.33322 18.88361 1.5834599999999999 18.24979 0.9500799999999998 z M 7.6001 3.19979 L 11.60042 3.19979 C 11.86709 3.19979 12.0001 3.33312 12.0001 3.5999000000000003 C 12.0001 3.8665700000000003 11.86698 4.00011 11.60042 4.00011 L 7.600099999999999 4.00011 C 7.333429999999999 4.00011 7.200099999999999 3.86656 7.200099999999999 3.5999000000000003 C 7.199989999999999 3.3332300000000004 7.333329999999999 3.19979 7.600099999999999 3.19979 z M 11.01301 30.21259 C 10.62112 30.603949999999998 10.15029 30.799899999999997 9.600209999999999 30.799899999999997 C 9.050339999999998 30.799899999999997 8.579519999999999 30.603949999999998 8.18784 30.21259 C 7.796049999999999 29.82059 7.60021 29.349549999999997 7.60021 28.799999999999997 C 7.60021 28.249809999999997 7.79637 27.778989999999997 8.18784 27.387309999999996 C 8.57931 26.995949999999997 9.05045 26.799359999999997 9.600209999999999 26.799359999999997 C 10.1505 26.799359999999997 10.62122 26.995949999999997 11.01301 27.387309999999996 C 11.404689999999999 27.778989999999997 11.60042 28.249819999999996 11.60042 28.799999999999997 C 11.60042 29.350189999999998 11.40447 29.82069 11.01301 30.21259 z M 16.80031 24.80021 C 16.80031 25.01653 16.72127 25.2048 16.56266 25.36277 C 16.403940000000002 25.520960000000002 16.21685 25.599780000000003 16.00053 25.599780000000003 L 3.2002200000000016 25.599780000000003 C 2.9835800000000017 25.599780000000003 2.796170000000002 25.520740000000004 2.6377700000000015 25.36277 C 2.4794800000000015 25.204800000000002 2.4003300000000016 25.016640000000002 2.4003300000000016 24.80021 L 2.4003300000000016 7.200320000000001 C 2.4003300000000016 6.983680000000001 2.4793700000000016 6.796050000000001 2.6377700000000015 6.637870000000001 C 2.7961700000000014 6.479790000000001 2.9835800000000017 6.400220000000001 3.2002200000000016 6.400220000000001 L 15.999890000000002 6.400220000000001 C 16.21685 6.400220000000001 16.40405 6.479470000000001 16.56266 6.637870000000001 C 16.72127 6.7960600000000015 16.79999 6.983680000000001 16.79999 7.200320000000001 L 16.79999 24.80011 L 16.80031 24.80011 z" stroke-linecap="round" />
</g>
</svg>