<?xml version="1.0" encoding="UTF-8" standalone="no" ?>
<!DOCTYPE svg PUBLIC "-//W3C//DTD SVG 1.1//EN" "http://www.w3.org/Graphics/SVG/1.1/DTD/svg11.dtd">
<svg xmlns="http://www.w3.org/2000/svg" xmlns:xlink="http://www.w3.org/1999/xlink" version="1.1" width="38.10152" height="32" viewBox="-10.53615 -8.870045142555991 39.2923 33.00009028511198" xml:space="preserve">
<desc>Created with Fabric.js 4.6.0</desc>
<defs>
</defs>
<g transform="matrix(1 0 0 1 9.11 7.63)" id="_r2Eo-JI_0QhvzVuZB9wV"  >
<path style="stroke: none; stroke-width: 1; stroke-dasharray: none; stroke-linecap: butt; stroke-dashoffset: 0; stroke-linejoin: miter; stroke-miterlimit: 4; fill: rgb(0,0,0); fill-rule: evenodd; opacity: 1;" vector-effect="non-scaling-stroke"  transform=" translate(-19.15, -16)" d="M 0.01995 14.73316 C 0.01995 15.71652 1.12374 15.89711 2.1071 16.23833 C 2.95009 16.51929 3.85313 16.80036 4.716060000000001 17.06126 L 8.66977 18.28547 C 10.47607 18.86755 9.77356 18.8876 11.35905 17.94424 C 11.84076 17.66328 12.22198 17.40237 12.70369 17.12131 L 15.33271 15.475660000000001 C 17.01858 14.371770000000001 18.88493 13.308190000000002 20.59085 12.204300000000002 C 21.03234 11.923340000000001 21.45378 11.682490000000001 21.875329999999998 11.401530000000001 C 22.31682 11.100520000000001 22.758319999999998 10.859660000000002 23.19992 10.55854 C 24.08291 9.99651 24.92589 9.4747 25.80888 8.91289 L 28.4379 7.2872900000000005 C 28.85934 7.0464400000000005 31.588839999999998 5.05956 31.588839999999998 6.10318 C 31.588839999999998 6.30382 31.147349999999996 6.66521 31.006759999999996 6.78553 L 27.334009999999996 10.07694 C 27.173479999999994 10.21742 27.113209999999995 10.21742 26.952779999999997 10.37795 L 25.949259999999995 11.321200000000001 C 25.788729999999994 11.461680000000001 25.728459999999995 11.48173 25.568029999999997 11.62221 L 17.439919999999997 18.90733 C 17.31949 19.007700000000003 17.25933 19.08792 17.138909999999996 19.208340000000003 C 16.978379999999994 19.368870000000005 16.938269999999996 19.368870000000005 16.757679999999997 19.509350000000005 L 15.372929999999997 20.753620000000005 C 15.071919999999997 20.974420000000006 14.931439999999997 21.094850000000005 14.931439999999997 21.576550000000005 L 14.329309999999996 30.025830000000006 C 15.292619999999996 30.025830000000006 15.653899999999997 29.624440000000007 16.296139999999998 29.062520000000006 C 16.93827 28.500490000000006 17.139129999999998 28.159480000000006 17.98201 27.456970000000005 C 18.12249 27.336540000000007 18.20281 27.256330000000005 18.32324 27.115740000000006 C 18.56409 26.874890000000008 18.74468 26.694300000000005 19.005589999999998 26.433390000000006 L 20.41039 25.148910000000008 L 27.29424 30.166300000000007 C 27.635469999999998 30.40715000000001 27.93637 30.627850000000006 28.297759999999997 30.888750000000005 L 29.241009999999996 31.571100000000005 C 29.542019999999997 31.771740000000005 30.063939999999995 31.952330000000003 30.545539999999995 31.992540000000005 C 31.528899999999997 32.09291 32.11098 31.169610000000006 32.331779999999995 30.407050000000005 L 33.53594 24.787640000000003 C 34.78021 19.228490000000004 35.90405 13.508600000000003 37.148419999999994 7.969400000000004 C 37.28889999999999 7.367270000000004 38.29230999999999 2.771430000000004 38.29230999999999 2.2295600000000038 C 38.29230999999999 1.1256700000000037 38.071509999999996 0.12236000000000358 36.70692 0.001830000000003551 C 36.14489 -0.03827999999999645 34.659769999999995 0.5839100000000036 34.09795999999999 0.8046000000000035 C 33.275029999999994 1.1257700000000035 32.472359999999995 1.4266800000000035 31.609319999999993 1.7478500000000037 C 30.766329999999993 2.0890800000000036 29.983719999999995 2.3899800000000035 29.140729999999994 2.7111600000000036 C 26.070109999999993 3.875110000000004 22.236829999999994 5.280120000000004 19.226479999999995 6.504330000000003 L 6.843639999999995 11.240760000000003 C 5.980709999999995 11.581990000000003 5.1979899999999954 11.842890000000004 4.354999999999995 12.184010000000004 C 3.1910499999999953 12.645560000000005 0.00000999999999518053 13.528760000000004 0.00000999999999518053 14.712760000000005 z" stroke-linecap="round" />
</g>
</svg>