<?xml version="1.0" encoding="UTF-8" standalone="no" ?>
<!DOCTYPE svg PUBLIC "-//W3C//DTD SVG 1.1//EN" "http://www.w3.org/Graphics/SVG/1.1/DTD/svg11.dtd">
<svg xmlns="http://www.w3.org/2000/svg" xmlns:xlink="http://www.w3.org/1999/xlink" version="1.1" width="25.50492" height="31.999999999999996" viewBox="-6.470970994696948 -8.03999575886936 26.301941989393896 32.99999151773872" xml:space="preserve">
<desc>Created with Fabric.js 4.6.0</desc>
<defs>
</defs>
<g transform="matrix(1 0 0 1 6.68 8.46)" id="tpSYNIfLpAIXpPvEVVP97"  >
<path style="stroke: none; stroke-width: 1; stroke-dasharray: none; stroke-linecap: butt; stroke-dashoffset: 0; stroke-linejoin: miter; stroke-miterlimit: 4; fill: rgb(243,228,223); fill-rule: evenodd; opacity: 1;" vector-effect="non-scaling-stroke"  transform=" translate(-12.65, -16)" d="M 7.63795 9.81479 C 8.17032 11.56412 8.17032 11.90642 8.96894 13.712710000000001 C 9.6915 15.328920000000002 10.96542 17.477510000000002 12.08724 18.865560000000002 C 13.76052 20.938090000000003 14.6161 21.584600000000002 16.59359 23.200810000000004 C 18.152739999999998 22.554300000000005 19.08447 20.767000000000003 20.98592 21.147260000000003 C 21.80352 21.299370000000003 23.02048 23.543100000000003 23.514780000000002 24.265660000000004 C 24.503480000000003 25.729770000000006 25.51126 26.737550000000006 25.264120000000002 27.992490000000004 C 25.11201 28.791100000000004 23.552860000000003 29.570730000000005 22.963420000000003 29.969980000000003 C 22.145820000000004 30.52145 21.29014 31.148860000000003 20.472540000000002 31.643260000000005 C 18.59008 32.74609 15.414720000000003 31.034830000000007 13.931620000000002 29.988970000000005 C 10.509000000000002 27.612220000000004 6.135770000000003 22.649450000000005 4.291390000000002 19.112810000000003 C 3.7399200000000015 18.047960000000003 3.1885600000000016 17.306410000000003 2.4660000000000015 15.728280000000003 C 1.1920800000000016 12.990250000000003 -1.6410999999999984 5.460550000000003 1.2681300000000015 3.0838000000000036 C 1.9336200000000017 2.5323300000000035 2.9984800000000016 1.9239100000000036 3.7590100000000017 1.4105200000000035 C 4.538640000000002 0.8971300000000035 5.679440000000001 -0.16771999999999654 6.649150000000002 0.022470000000003543 C 7.732990000000003 0.23164000000000354 8.455550000000002 1.7718000000000036 9.311130000000002 3.0457200000000038 C 9.938650000000003 3.9774500000000037 11.383670000000002 5.783750000000004 11.231560000000002 6.563370000000004 C 10.851290000000002 8.464810000000003 8.854810000000002 8.635900000000005 7.656830000000001 9.833880000000004 z" stroke-linecap="round" />
</g>
</svg>