<?xml version="1.0" encoding="UTF-8" standalone="no" ?>
<!DOCTYPE svg PUBLIC "-//W3C//DTD SVG 1.1//EN" "http://www.w3.org/Graphics/SVG/1.1/DTD/svg11.dtd">
<svg xmlns="http://www.w3.org/2000/svg" xmlns:xlink="http://www.w3.org/1999/xlink" version="1.1" width="31.787899999999997" height="32" viewBox="-9.530752844290415 -9.600117686833459 32.78150568858083 33.00023537366692" xml:space="preserve">
<desc>Created with Fabric.js 4.6.0</desc>
<defs>
</defs>
<g transform="matrix(1 0 0 1 6.86 6.9)" id="3o01HqBnJbv-jQ9jyQKC3"  >
<path style="stroke: none; stroke-width: 1; stroke-dasharray: none; stroke-linecap: butt; stroke-dashoffset: 0; stroke-linejoin: miter; stroke-miterlimit: 4; fill: rgb(243,228,223); fill-rule: evenodd; opacity: 1;" vector-effect="non-scaling-stroke"  transform=" translate(-15.89, -16)" d="M 3.88234 28.14349 z M 19.72009 23.48994 C 21.00564 23.48994 21.67411 23.41282 22.779709999999998 22.61581 C 23.525309999999998 22.07586 23.885309999999997 21.53592 23.962429999999998 20.48184 C 24.06526 19.47917 23.962429999999998 19.556289999999997 23.216829999999998 19.170589999999997 C 22.95976 19.042059999999996 22.753999999999998 18.93923 22.49694 18.810589999999998 L 20.18302 17.782109999999996 C 19.69449 17.679279999999995 19.46313 18.193519999999996 19.02601 18.759069999999994 C 17.997529999999998 20.070319999999995 18.15188 20.301679999999994 15.45225 18.681949999999993 C 15.09225 18.476299999999995 14.73236 18.167709999999992 14.42377 17.910639999999994 C 13.755289999999999 17.370689999999993 12.26409 15.596719999999994 12.03263 14.902529999999993 C 11.9041 14.516819999999994 12.2897 14.208339999999993 12.62399 13.796929999999993 C 13.67818 12.434259999999993 13.395299999999999 12.665619999999993 12.6754 10.865939999999993 C 12.44404 10.300289999999993 12.26399 9.837459999999993 12.03263 9.246209999999992 C 11.74986 8.577729999999992 11.569799999999999 8.500609999999993 10.51572 8.474899999999993 C 8.844570000000001 8.474899999999993 7.37898 11.303059999999993 8.047460000000001 13.539859999999994 C 8.124580000000002 13.822629999999993 8.22741 14.105509999999994 8.33023 14.388289999999994 C 8.69023 15.339539999999994 9.46154 16.368019999999994 10.052900000000001 17.190739999999995 C 10.20714 17.396389999999993 10.38709 17.602149999999995 10.567140000000002 17.807809999999996 C 11.029970000000002 18.399169999999998 11.466980000000001 18.784769999999995 11.878390000000001 19.273299999999995 L 13.3953 20.610259999999997 C 14.32085 21.355859999999996 14.55231 21.432979999999997 15.426440000000001 21.972929999999998 C 15.863560000000001 22.229999999999997 17.303340000000002 22.79565 17.81758 22.975599999999996 C 18.30611 23.155549999999998 19.10313 23.412719999999997 19.69448 23.412719999999997 z M 3.88234 28.14349 z M 2.21109 23.74701 L 0.2570699999999999 30.92034 C 0.17994999999999992 31.20311 -1.1102230246251565e-16 31.66594 -1.1102230246251565e-16 32.00023 L 3.90805 30.97175 C 5.24501 30.63756 6.53055 30.27756 7.867509999999999 29.94327 C 8.66452 29.73762 8.27892 29.814739999999997 9.59018 30.4061 C 12.72692 31.820179999999997 16.172150000000002 32.07725 19.54025 31.30594 C 21.5971 30.84311 23.29406 30.02039 24.9652 28.88909 C 26.379279999999998 27.912129999999998 27.921889999999998 26.39512 28.89896 24.98104 C 29.43891 24.20973 29.953149999999997 23.36131 30.338749999999997 22.48707 C 30.724459999999997 21.61294 31.110059999999997 20.61016 31.341419999999996 19.556079999999998 C 31.778539999999996 17.499229999999997 31.907069999999997 16.008029999999998 31.649899999999995 13.899759999999997 C 31.212779999999995 10.325999999999997 29.618759999999995 7.137839999999997 27.124779999999994 4.643869999999996 C 26.919129999999996 4.438219999999996 26.764779999999995 4.258159999999997 26.559129999999993 4.078219999999996 C 21.98259999999999 0.04162999999999606 15.786339999999992 -1.1410900000000037 9.975789999999993 1.1729399999999965 C 9.693019999999994 1.2757699999999965 9.487259999999992 1.4042999999999966 9.178779999999993 1.5071299999999965 C 8.896009999999993 1.6099599999999965 8.690249999999992 1.7641999999999967 8.381769999999992 1.9185399999999966 C 6.967689999999992 2.6127299999999964 5.605029999999992 3.7697399999999965 4.473719999999993 4.875229999999997 C 3.856649999999993 5.492299999999997 2.905399999999993 6.777839999999997 2.442579999999993 7.497739999999997 C 2.2883399999999927 7.729099999999997 2.1598099999999927 7.960569999999997 2.031169999999993 8.217629999999996 C 1.9026399999999928 8.500399999999996 1.7483999999999928 8.680459999999997 1.6197599999999928 8.988939999999996 C 1.1569299999999927 10.094539999999995 0.7199199999999928 11.122909999999996 0.43703999999999277 12.408459999999996 C -0.00008000000000724095 14.465309999999995 -0.05149000000000725 16.496459999999995 0.30850999999999273 18.579019999999996 C 0.4113399999999927 19.247499999999995 0.5912799999999927 19.864569999999997 0.7713399999999928 20.455929999999995 C 1.028409999999993 21.381479999999996 1.5169399999999928 22.461369999999995 1.9540599999999928 23.335499999999996 C 1.9797699999999927 23.412619999999997 2.1854199999999926 23.695499999999996 2.1854199999999926 23.721209999999996 z" stroke-linecap="round" />
</g>
</svg>