<?xml version="1.0" encoding="UTF-8" standalone="no" ?>
<!DOCTYPE svg PUBLIC "-//W3C//DTD SVG 1.1//EN" "http://www.w3.org/Graphics/SVG/1.1/DTD/svg11.dtd">
<svg xmlns="http://www.w3.org/2000/svg" xmlns:xlink="http://www.w3.org/1999/xlink" version="1.1" width="90" height="86.14194" viewBox="-0.0000013930496578495877 0 74.00000278609932 70.82782" xml:space="preserve">
<desc>Created with Fabric.js 4.6.0</desc>
<defs>
</defs>
<g transform="matrix(0.98 0 0 0.98 37 35.42)" id="jYW2LdIboWVQmGtqWXwgb"  >
<path style="stroke: rgb(255,255,255); stroke-width: 2; stroke-dasharray: none; stroke-linecap: butt; stroke-dashoffset: 0; stroke-linejoin: miter; stroke-miterlimit: 22.93; fill: none; fill-rule: evenodd; opacity: 1;" vector-effect="non-scaling-stroke"  transform=" translate(-25, -27.46)" d="M 25.8817 0 C 27.1814 15.15651 20.6557 29.71792 0 28.79072 C 21.382 33.12422 23.601 32.84942 25.8403 54.92443 C 27.662599999999998 39.07922 29.6661 29.22222 50.0001 28.65822 C 28.808400000000002 26.68052 27.851600000000005 19.76352 25.881800000000002 0 z" stroke-linecap="round" />
</g>
<g transform="matrix(9.51 0 0 9.61 99.99 110.33)" id="_EiDOEd3t36RMB1fztVZ0"  >
<path style="stroke: none; stroke-width: 1; stroke-dasharray: none; stroke-linecap: butt; stroke-dashoffset: 0; stroke-linejoin: miter; stroke-miterlimit: 4; fill: rgb(0,0,0); fill-rule: evenodd; opacity: 1;" vector-effect="non-scaling-stroke"  transform=" translate(0, 0)" d="M 0.3525 -10.98489 C 0.8720999999999999 -4.9221 -1.7372 0.9025999999999996 -10 0.5315999999999992 C -1.4478000000000009 2.2647999999999993 -0.5587999999999997 2.154399999999999 0.3366000000000007 10.98489 C 1.0657000000000005 4.6471 1.8667000000000007 0.7042999999999999 10 0.47889999999999944 C 1.5229 -0.31250000000000056 1.1408000000000005 -3.0785000000000005 0.35249999999999915 -10.98489 z" stroke-linecap="round" />
</g>
</svg>