<?xml version="1.0" encoding="utf-8"?>
<svg version="1.1" width="46" height="46" viewBox="1 1 22 22" xmlns="http://www.w3.org/2000/svg">
  <desc>Created with Fabric.js 4.6.0</desc>
  <g transform="matrix(1 0 0 1 12 12)" id="0NdwkKQZMD3qNc055L-Q2">
    <g style="" vector-effect="non-scaling-stroke">
      <g>
        <g>
          <g>
            <ellipse style="fill: rgb(255, 255, 255); stroke: rgb(255, 255, 255);" cx="0.013" cy="0.025" rx="9.5" ry="9.5"/>
          </g>
          <g id="f7BUvrz658GcGlKhnvNAC">
            <path style="stroke: none; stroke-width: 1; stroke-dasharray: none; stroke-linecap: butt; stroke-dashoffset: 0; stroke-linejoin: miter; stroke-miterlimit: 4; fill: rgb(0,0,0); fill-rule: nonzero; opacity: 1;" vector-effect="non-scaling-stroke" transform=" translate(-12, -12)" d="M 14.8285 14.8284 L 16.2427 13.4142 L 12.0001 9.17161 L 7.75745 13.4142 L 9.17166 14.8285 L 12.0001 12 L 14.8285 14.8284 Z" stroke-linecap="round"/>
          </g>
          <g id="kJmX6KQXbmdmR2GCWUlSS">
            <path style="stroke: rgb(255,255,255); stroke-width: 0; stroke-dasharray: none; stroke-linecap: butt; stroke-dashoffset: 0; stroke-linejoin: miter; stroke-miterlimit: 4; fill: rgb(0,0,0); fill-rule: evenodd; opacity: 1;" vector-effect="non-scaling-stroke" d="M 1 12 C 1 18.0751 5.92487 23 12 23 C 18.0751 23 23 18.0751 23 12 C 23 5.92487 18.0751 1 12 1 C 5.92487 1 1 5.92487 1 12 Z M 12 3 C 7.02944 3 3 7.02944 3 12 C 3 16.9706 7.02944 21 12 21 C 16.9706 21 21 16.9706 21 12 C 21 7.02944 16.9706 3 12 3 Z" stroke-linecap="round" transform=" translate(-12, -12)"/>
          </g>
        </g>
      </g>
    </g>
  </g>
</svg>