<?xml version="1.0" encoding="UTF-8" standalone="no" ?>
<!DOCTYPE svg PUBLIC "-//W3C//DTD SVG 1.1//EN" "http://www.w3.org/Graphics/SVG/1.1/DTD/svg11.dtd">
<svg xmlns="http://www.w3.org/2000/svg" xmlns:xlink="http://www.w3.org/1999/xlink" version="1.1" width="512" height="512" viewBox="-12.460000000000008 -49.33000000000001 512 512" xml:space="preserve">
<desc>Created with Fabric.js 4.6.0</desc>
<defs>
</defs>
<g transform="matrix(2.56 0 0 2.56 243.54 206.67)" id="Bw59CKm3tPr6In38xc-Zy"  >
<g style="" vector-effect="non-scaling-stroke"   >
		<g transform="matrix(1 0 0 1 0 0)" id="4cwCSDFa0KPESYKSAiZIv"  >
<path style="stroke: rgb(91,164,200); stroke-width: 0; stroke-dasharray: none; stroke-linecap: butt; stroke-dashoffset: 0; stroke-linejoin: miter; stroke-miterlimit: 4; fill: rgb(0,0,0); fill-rule: nonzero; opacity: 1;" vector-effect="non-scaling-stroke"  transform=" translate(-100, -100)" d="M 0 42.42662 C 0 18.99505 18.99504 0 42.42662 0 L 157.57438000000002 0 L 157.57438000000002 0 C 181.00595 0 200.00100000000003 18.99504 200.00100000000003 42.42662 L 200.00100000000003 157.57438000000002 L 200.00100000000003 157.57438000000002 C 200.00100000000003 181.00595 181.00596000000004 200.00100000000003 157.57438000000002 200.00100000000003 L 42.426620000000014 200.00100000000003 L 42.426620000000014 200.00100000000003 C 18.995050000000013 200.00100000000003 1.4210854715202004e-14 181.00596000000004 1.4210854715202004e-14 157.57438000000002 z" stroke-linecap="round" />
</g>
		<g transform="matrix(2.2 0 0 2.73 0 0)" id="GTqjmtmFDGBHBVUQ9hwOH"  >
<g style="" vector-effect="non-scaling-stroke"   >
		<g transform="matrix(0.42 0 0 0.42 20.71 1.64)" id="Q5vfVkuK9BpKVUP1311lw"  >
<path style="stroke: none; stroke-width: 1; stroke-dasharray: none; stroke-linecap: butt; stroke-dashoffset: 0; stroke-linejoin: miter; stroke-miterlimit: 4; fill: rgb(255,255,255); fill-rule: evenodd; opacity: 1;" vector-effect="non-scaling-stroke"  transform=" translate(-346.59, -50.4)" d="M 347.09 32.25 C 347.82 42.269999999999996 344.14 51.89 332.48999999999995 51.28 C 344.54999999999995 54.14 345.79999999999995 53.96 347.06999999999994 68.55 C 348.0999999999999 58.08 349.22999999999996 51.56 360.69999999999993 51.19 C 348.74999999999994 49.879999999999995 348.2099999999999 45.309999999999995 347.0999999999999 32.25 z" stroke-linecap="round" />
</g>
		<g transform="matrix(0.42 0 0 0.42 0 -17.33)" id="ZNCSzAUj5ZFE0rxipCyBD"  >
<path style="stroke: none; stroke-width: 1; stroke-dasharray: none; stroke-linecap: butt; stroke-dashoffset: 0; stroke-linejoin: miter; stroke-miterlimit: 4; fill: rgb(255,255,255); fill-rule: nonzero; opacity: 1;" vector-effect="non-scaling-stroke"  transform=" translate(-112.74, -29.06)" d="M 32.71 35.03 L 32.99 37.51 C 33.36 39.36 34.04 40.93 35.02 42.23 C 36.010000000000005 43.519999999999996 37.190000000000005 44.559999999999995 38.580000000000005 45.349999999999994 C 39.970000000000006 46.13999999999999 41.480000000000004 46.67999999999999 43.10000000000001 46.98 C 44.73000000000001 47.279999999999994 46.34000000000001 47.339999999999996 47.94000000000001 47.16 C 49.59000000000001 46.97 51.17000000000001 46.589999999999996 52.670000000000016 46.019999999999996 C 54.170000000000016 45.44 55.490000000000016 44.69 56.63000000000002 43.74999999999999 C 57.77000000000002 42.809999999999995 58.640000000000015 41.699999999999996 59.250000000000014 40.43999999999999 C 59.860000000000014 39.17999999999999 60.08000000000001 37.77999999999999 59.91000000000001 36.22999999999999 C 59.72000000000001 34.51999999999999 59.10000000000001 33.22999999999999 58.05000000000001 32.36999999999999 C 57.01000000000001 31.51999999999999 55.71000000000001 30.91999999999999 54.16000000000001 30.57999999999999 C 52.610000000000014 30.23999999999999 50.860000000000014 30.06999999999999 48.92000000000001 30.07999999999999 C 46.970000000000006 30.07999999999999 44.970000000000006 30.06999999999999 42.91000000000001 30.02999999999999 C 40.85000000000001 29.98999999999999 38.84000000000001 29.85999999999999 36.87000000000001 29.61999999999999 C 34.90000000000001 29.36999999999999 33.10000000000001 28.81999999999999 31.490000000000013 27.94999999999999 C 29.880000000000013 27.079999999999988 28.510000000000012 25.829999999999988 27.380000000000013 24.19999999999999 C 26.250000000000014 22.56999999999999 25.530000000000012 20.35999999999999 25.210000000000015 17.579999999999988 C 24.940000000000015 15.179999999999987 25.220000000000017 13.009999999999987 26.050000000000015 11.109999999999989 C 26.890000000000015 9.199999999999989 28.110000000000014 7.549999999999988 29.700000000000014 6.139999999999989 C 31.300000000000015 4.7399999999999896 33.16000000000001 3.6299999999999892 35.280000000000015 2.789999999999989 C 37.40000000000001 1.949999999999989 39.610000000000014 1.409999999999989 41.90000000000001 1.149999999999989 C 44.19000000000001 0.889999999999989 46.47000000000001 0.9299999999999891 48.72000000000001 1.269999999999989 C 50.97000000000001 1.609999999999989 53.04000000000001 2.2799999999999887 54.91000000000001 3.2799999999999887 C 56.78000000000001 4.279999999999989 58.35000000000001 5.619999999999989 59.62000000000001 7.279999999999989 C 60.890000000000015 8.939999999999989 61.69000000000001 10.97999999999999 62.01000000000001 13.369999999999989 L 62.20000000000001 15.049999999999988 L 55.32000000000001 15.829999999999988 L 55.13000000000001 14.149999999999988 C 54.77000000000001 12.889999999999988 54.14000000000001 11.839999999999987 53.23000000000001 10.999999999999988 C 52.320000000000014 10.159999999999988 51.27000000000001 9.479999999999988 50.08000000000001 8.969999999999988 C 48.890000000000015 8.459999999999988 47.59000000000001 8.119999999999989 46.19000000000001 7.949999999999989 C 44.79000000000001 7.779999999999989 43.40000000000001 7.779999999999989 42.01000000000001 7.939999999999989 C 40.62000000000001 8.099999999999989 39.29000000000001 8.40999999999999 38.02000000000001 8.879999999999988 C 36.75000000000001 9.349999999999989 35.66000000000001 9.959999999999988 34.74000000000001 10.709999999999988 C 33.82000000000001 11.459999999999988 33.12000000000001 12.33999999999999 32.61000000000001 13.33999999999999 C 32.10000000000001 14.33999999999999 31.920000000000005 15.48999999999999 32.07000000000001 16.76999999999999 C 32.260000000000005 18.47999999999999 32.88000000000001 19.739999999999988 33.92000000000001 20.56999999999999 C 34.96000000000001 21.399999999999988 36.27000000000001 21.97999999999999 37.82000000000001 22.31999999999999 C 39.370000000000005 22.65999999999999 41.14000000000001 22.81999999999999 43.120000000000005 22.809999999999988 C 45.09 22.799999999999986 47.11000000000001 22.829999999999988 49.14 22.899999999999988 C 51.17 22.969999999999988 53.2 23.12999999999999 55.21 23.389999999999986 C 57.230000000000004 23.649999999999988 59.03 24.209999999999987 60.64 25.079999999999988 C 62.25 25.94999999999999 63.63 27.17999999999999 64.76 28.779999999999987 C 65.89 30.37999999999999 66.61 32.569999999999986 66.93 35.33999999999999 C 67.27000000000001 38.32999999999999 67.02000000000001 40.91999999999999 66.19000000000001 43.12999999999999 C 65.36000000000001 45.32999999999999 64.13000000000001 47.18999999999999 62.51000000000001 48.68999999999999 C 60.90000000000001 50.19999999999999 58.99000000000001 51.38999999999999 56.780000000000015 52.25999999999999 C 54.58000000000001 53.12999999999999 52.31000000000002 53.69999999999999 49.95000000000002 53.96999999999999 C 42.95000000000002 54.76999999999999 37.33000000000002 53.559999999999995 33.100000000000016 50.36999999999999 C 28.860000000000014 47.17999999999999 26.380000000000017 42.31999999999999 25.640000000000015 35.80999999999999 L 32.680000000000014 35.00999999999999 z M 131.92 1.1600000000000037 L 130.85 51.650000000000006 L 123.91999999999999 51.50000000000001 L 124.82 9.06000000000001 C 123.77999999999999 9.95000000000001 122.82 11.100000000000009 121.92999999999999 12.500000000000009 C 121.03999999999999 13.90000000000001 120.14999999999999 15.38000000000001 119.25999999999999 16.92000000000001 C 118.25999999999999 18.78000000000001 117.25999999999999 20.620000000000008 116.27999999999999 22.45000000000001 C 115.29999999999998 24.28000000000001 114.21999999999998 25.91000000000001 113.03999999999999 27.34000000000001 C 111.85 28.760000000000012 110.50999999999999 29.90000000000001 109.02 30.760000000000012 C 107.52 31.610000000000014 105.72999999999999 32.02000000000001 103.64 31.98000000000001 C 101.55 31.940000000000012 99.78 31.47000000000001 98.35 30.580000000000013 C 96.91999999999999 29.690000000000012 95.66999999999999 28.520000000000014 94.6 27.080000000000013 C 93.53 25.630000000000013 92.58 24.020000000000014 91.75999999999999 22.23000000000001 C 90.94 20.440000000000012 90.08999999999999 18.62000000000001 89.21 16.780000000000012 C 88.33 15.040000000000012 87.47 13.430000000000012 86.61 11.930000000000012 C 85.76 10.430000000000012 84.8 9.190000000000012 83.75 8.200000000000012 L 82.85 50.64000000000001 L 75.91999999999999 50.49000000000001 L 76.98999999999998 7.105427357601002e-15 L 83.75999999999998 0.14000000000000712 C 85.30999999999997 0.7100000000000071 86.66999999999997 1.500000000000007 87.85999999999997 2.520000000000007 C 89.04999999999997 3.540000000000007 90.10999999999997 4.690000000000007 91.04999999999997 5.970000000000008 C 91.98999999999997 7.250000000000008 92.82999999999997 8.610000000000008 93.57999999999997 10.050000000000008 C 94.32999999999997 11.490000000000007 95.05999999999997 12.910000000000007 95.78999999999996 14.330000000000009 C 96.55999999999996 15.960000000000008 97.22999999999996 17.44000000000001 97.78999999999996 18.76000000000001 C 98.34999999999997 20.09000000000001 98.91999999999996 21.20000000000001 99.48999999999997 22.10000000000001 C 100.05999999999996 23.000000000000007 100.67999999999996 23.70000000000001 101.33999999999996 24.19000000000001 C 101.99999999999996 24.69000000000001 102.80999999999996 24.94000000000001 103.77999999999996 24.97000000000001 C 104.79999999999995 24.99000000000001 105.65999999999995 24.77000000000001 106.36999999999996 24.300000000000008 C 107.07999999999996 23.83000000000001 107.74999999999996 23.160000000000007 108.38999999999996 22.290000000000006 C 109.02999999999996 21.420000000000005 109.66999999999996 20.330000000000005 110.30999999999996 19.03000000000001 C 110.94999999999996 17.730000000000008 111.69999999999996 16.28000000000001 112.53999999999996 14.690000000000008 C 113.26999999999997 13.31000000000001 114.04999999999997 11.920000000000009 114.88999999999996 10.510000000000009 C 115.71999999999996 9.100000000000009 116.63999999999996 7.780000000000008 117.62999999999995 6.540000000000008 C 118.61999999999995 5.300000000000008 119.72999999999995 4.200000000000008 120.95999999999995 3.230000000000008 C 122.18999999999996 2.260000000000008 123.58999999999995 1.530000000000008 125.15999999999995 1.020000000000008 L 131.91999999999996 1.1600000000000081 z M 200.37 7.8800000000000034 L 195.16 58.120000000000005 L 188.27 57.410000000000004 L 192.65 15.190000000000005 C 191.54 15.990000000000006 190.49 17.060000000000006 189.48000000000002 18.390000000000004 C 188.48000000000002 19.720000000000006 187.47000000000003 21.110000000000003 186.45000000000002 22.570000000000004 C 185.3 24.340000000000003 184.16000000000003 26.100000000000005 183.03000000000003 27.840000000000003 C 181.90000000000003 29.590000000000003 180.69000000000003 31.120000000000005 179.40000000000003 32.440000000000005 C 178.10000000000002 33.760000000000005 176.67000000000004 34.790000000000006 175.11000000000004 35.52 C 173.55000000000004 36.25 171.73000000000005 36.510000000000005 169.64000000000004 36.290000000000006 C 167.56000000000003 36.07000000000001 165.84000000000003 35.46000000000001 164.49000000000004 34.46000000000001 C 163.14000000000004 33.46000000000001 161.98000000000005 32.190000000000005 161.04000000000005 30.660000000000007 C 160.09000000000006 29.130000000000006 159.28000000000006 27.44000000000001 158.61000000000004 25.590000000000007 C 157.94000000000005 23.740000000000006 157.24000000000004 21.860000000000007 156.52000000000004 19.950000000000006 C 155.79000000000005 18.150000000000006 155.06000000000003 16.470000000000006 154.33000000000004 14.910000000000007 C 153.60000000000005 13.350000000000007 152.75000000000003 12.030000000000008 151.78000000000003 10.960000000000008 L 147.40000000000003 53.18000000000001 L 140.51000000000005 52.470000000000006 L 145.72000000000006 2.240000000000009 L 152.45000000000005 2.9400000000000093 C 153.94000000000005 3.630000000000009 155.24000000000004 4.54000000000001 156.34000000000003 5.650000000000009 C 157.44000000000003 6.76000000000001 158.40000000000003 8.000000000000009 159.24000000000004 9.350000000000009 C 160.07000000000005 10.710000000000008 160.80000000000004 12.130000000000008 161.43000000000004 13.63000000000001 C 162.06000000000003 15.13000000000001 162.67000000000004 16.61000000000001 163.28000000000003 18.07000000000001 C 163.92000000000002 19.760000000000012 164.46000000000004 21.280000000000012 164.91000000000003 22.650000000000013 C 165.36 24.020000000000014 165.83 25.180000000000014 166.33 26.12000000000001 C 166.83 27.060000000000013 167.38000000000002 27.810000000000013 168 28.360000000000014 C 168.62 28.910000000000014 169.41 29.230000000000015 170.37 29.330000000000013 C 171.38 29.440000000000012 172.26 29.280000000000012 173.01 28.87000000000001 C 173.75 28.46000000000001 174.48 27.850000000000012 175.19 27.030000000000012 C 175.9 26.21000000000001 176.62 25.18000000000001 177.37 23.940000000000012 C 178.12 22.700000000000014 178.98000000000002 21.310000000000013 179.94 19.790000000000013 C 180.78 18.470000000000013 181.67 17.150000000000013 182.62 15.820000000000013 C 183.57 14.490000000000013 184.59 13.240000000000013 185.68 12.090000000000012 C 186.77 10.930000000000012 187.97 9.930000000000012 189.27 9.060000000000013 C 190.58 8.190000000000014 192.03 7.5800000000000125 193.63000000000002 7.200000000000013 L 200.36 7.900000000000013 z" stroke-linecap="round" />
</g>
		<g transform="matrix(0.42 0 0 0.42 -1.24 18.24)" id="dhyDk8o94AjageRkVyIWT"  >
<path style="stroke: none; stroke-width: 1; stroke-dasharray: none; stroke-linecap: butt; stroke-dashoffset: 0; stroke-linejoin: miter; stroke-miterlimit: 4; fill: rgb(255,255,255); fill-rule: nonzero; opacity: 1;" vector-effect="non-scaling-stroke"  transform=" translate(-229.93, -122.9)" d="M 158.43 138.93 C 156.75 138.6 155.27 137.99 153.99 137.1 C 152.72 136.21 151.65 135.16 150.8 133.96 C 149.95000000000002 132.75 149.37 131.42000000000002 149.05 129.98000000000002 C 148.74 128.53000000000003 148.72 127.09000000000002 149 125.66000000000003 L 151.88 110.89000000000003 L 146.4 109.82000000000004 L 147.41 104.65000000000003 L 152.95 105.73000000000003 L 154.85 96.01000000000003 L 160.2 97.05000000000004 L 158.29999999999998 106.77000000000004 L 164.51 107.98000000000003 L 163.5 113.15000000000003 L 157.28 111.94000000000004 L 154.2 127.69000000000004 C 154.14999999999998 129.04000000000005 154.61999999999998 130.26000000000005 155.60999999999999 131.35000000000005 C 156.6 132.44000000000005 157.88 133.13000000000005 159.45999999999998 133.44000000000005 L 158.39 138.92000000000004 z M 193.11 131.23000000000002 C 192.87 132.8 192.63000000000002 134.34000000000003 192.4 135.85000000000002 C 192.17000000000002 137.36 191.95000000000002 138.70000000000002 191.75 139.88000000000002 C 191.55 141.05 191.39 142.00000000000003 191.28 142.72000000000003 C 191.17 143.44000000000003 191.11 143.82000000000002 191.1 143.87000000000003 L 185.4 142.99000000000004 L 185.9 139.75000000000003 C 184.47 141.04000000000002 182.87 141.87000000000003 181.08 142.21000000000004 C 179.29000000000002 142.56000000000003 177.51000000000002 142.61000000000004 175.73000000000002 142.33000000000004 C 174.28000000000003 142.11000000000004 172.87 141.67000000000004 171.49 141.01000000000005 C 170.11 140.36000000000004 168.91 139.51000000000005 167.89000000000001 138.46000000000004 C 166.87 137.41000000000003 166.10000000000002 136.19000000000003 165.60000000000002 134.78000000000003 C 165.10000000000002 133.37000000000003 164.98000000000002 131.80000000000004 165.25000000000003 130.06000000000003 C 165.52000000000004 128.28000000000003 166.06000000000003 126.80000000000003 166.85000000000002 125.61000000000003 C 167.65000000000003 124.42000000000003 168.63000000000002 123.51000000000003 169.81000000000003 122.86000000000003 C 170.99000000000004 122.22000000000003 172.32000000000002 121.82000000000002 173.80000000000004 121.67000000000003 C 175.28000000000003 121.52000000000002 176.87000000000003 121.57000000000004 178.56000000000003 121.83000000000003 C 180.05000000000004 122.06000000000003 181.61000000000004 122.43000000000002 183.24000000000004 122.93000000000002 C 184.88000000000002 123.43000000000002 186.52000000000004 124.09000000000002 188.17000000000004 124.89000000000001 L 188.21000000000004 124.64000000000001 C 188.34000000000003 124.32000000000002 188.43000000000004 124.04000000000002 188.47000000000003 123.79000000000002 C 188.51000000000002 123.54000000000002 188.55000000000004 123.27000000000002 188.59000000000003 122.98000000000002 C 188.76000000000002 121.86000000000001 188.69000000000003 120.86000000000001 188.39000000000004 119.97000000000001 C 188.08000000000004 119.08000000000001 187.62000000000003 118.31000000000002 187.00000000000006 117.66000000000001 C 186.38000000000005 117.01 185.65000000000006 116.49000000000001 184.80000000000007 116.08000000000001 C 183.95000000000007 115.68 183.05000000000007 115.4 182.10000000000008 115.25000000000001 C 181.19000000000008 115.11000000000001 180.29000000000008 115.08000000000001 179.39000000000007 115.15000000000002 C 178.49000000000007 115.22000000000001 177.65000000000006 115.43000000000002 176.88000000000008 115.78000000000002 C 176.11000000000007 116.13000000000001 175.44000000000008 116.61000000000001 174.88000000000008 117.22000000000001 C 174.32000000000008 117.83000000000001 173.95000000000007 118.61000000000001 173.76000000000008 119.56000000000002 L 168.0600000000001 118.68000000000002 C 168.4600000000001 116.88000000000002 169.1500000000001 115.36000000000003 170.13000000000008 114.11000000000001 C 171.10000000000008 112.86000000000001 172.25000000000009 111.89000000000001 173.5600000000001 111.18 C 174.8700000000001 110.47000000000001 176.3100000000001 110 177.8700000000001 109.78 C 179.4300000000001 109.55 180.9900000000001 109.56 182.5600000000001 109.8 C 184.38000000000008 110.08 186.0500000000001 110.59 187.5900000000001 111.33 C 189.13000000000008 112.07 190.4200000000001 113.08 191.48000000000008 114.34 C 192.5300000000001 115.60000000000001 193.29000000000008 117.13000000000001 193.76000000000008 118.91 C 194.22000000000008 120.69 194.29000000000008 122.78999999999999 193.97000000000008 125.19 L 193.92000000000007 125.5 C 194.55000000000007 125.51 195.20000000000007 125.51 195.86000000000007 125.48 C 196.52000000000007 125.45 197.21000000000006 125.41000000000001 197.94000000000008 125.36 L 197.0500000000001 131.18 L 193.1100000000001 131.21 z M 187.39000000000001 130.49 C 187.14000000000001 130.45000000000002 186.71 130.3 186.10000000000002 130.04000000000002 C 185.48000000000002 129.78000000000003 184.77 129.49 183.95000000000002 129.16000000000003 C 183.13000000000002 128.84000000000003 182.25000000000003 128.53000000000003 181.31000000000003 128.22000000000003 C 180.37000000000003 127.90000000000003 179.44000000000003 127.68000000000002 178.53000000000003 127.54000000000002 C 177.83000000000004 127.43000000000002 177.06000000000003 127.39000000000001 176.24000000000004 127.41000000000003 C 175.41000000000003 127.43000000000002 174.63000000000002 127.57000000000002 173.89000000000004 127.85000000000002 C 173.15000000000003 128.12000000000003 172.51000000000005 128.51000000000002 171.96000000000004 129.03000000000003 C 171.42000000000004 129.54000000000002 171.08000000000004 130.23000000000002 170.95000000000005 131.10000000000002 C 170.84000000000003 131.8 170.94000000000005 132.48000000000002 171.24000000000004 133.12000000000003 C 171.54000000000005 133.76000000000002 171.99000000000004 134.36000000000004 172.58000000000004 134.89000000000004 C 173.18000000000004 135.42000000000004 173.89000000000004 135.89000000000004 174.72000000000003 136.28000000000003 C 175.55000000000004 136.66000000000003 176.46000000000004 136.93000000000004 177.45000000000002 137.08000000000004 C 178.61 137.26000000000005 179.73000000000002 137.23000000000005 180.83 136.99000000000004 C 181.92000000000002 136.75000000000003 182.92000000000002 136.40000000000003 183.81 135.95000000000005 C 184.71 135.48000000000005 185.44 134.96000000000004 186.02 134.37000000000003 C 186.60000000000002 133.77000000000004 186.95000000000002 133.21000000000004 187.07000000000002 132.67000000000004 L 187.40000000000003 130.49000000000004 z M 217.27 146.9 C 215.56 146.73000000000002 214.04000000000002 146.27 212.68 145.5 C 211.33 144.74 210.17000000000002 143.79 209.21 142.67 C 208.25 141.54999999999998 207.54000000000002 140.28 207.09 138.86999999999998 C 206.64000000000001 137.45999999999998 206.49 136.02999999999997 206.63 134.56999999999996 L 208.1 119.58999999999996 L 202.54 119.03999999999996 L 203.06 113.79999999999997 L 208.68 114.34999999999997 L 209.65 104.48999999999997 L 215.08 105.01999999999997 L 214.11 114.87999999999997 L 220.41000000000003 115.49999999999997 L 219.89000000000001 120.73999999999997 L 213.59 120.11999999999996 L 212.02 136.08999999999997 C 212.10000000000002 137.43999999999997 212.69 138.60999999999999 213.78 139.59999999999997 C 214.87 140.58999999999997 216.21 141.15999999999997 217.81 141.31999999999996 L 217.26 146.86999999999998 z M 240.92000000000002 148.59 C 239.21 148.49 237.66000000000003 148.09 236.28000000000003 147.39000000000001 C 234.90000000000003 146.69000000000003 233.70000000000002 145.79000000000002 232.69000000000003 144.71 C 231.68000000000004 143.63 230.93000000000004 142.39000000000001 230.42000000000002 141 C 229.91000000000003 139.61 229.70000000000002 138.19 229.78000000000003 136.73 L 230.62000000000003 121.71 L 225.05000000000004 121.39999999999999 L 225.34000000000003 116.13999999999999 L 230.97000000000003 116.45999999999998 L 231.52000000000004 106.56999999999998 L 236.97000000000003 106.87999999999998 L 236.42000000000002 116.76999999999998 L 242.74 117.11999999999998 L 242.45000000000002 122.37999999999998 L 236.13000000000002 122.02999999999999 L 235.23000000000002 138.06 C 235.36 139.41 236.00000000000003 140.55 237.13000000000002 141.5 C 238.26000000000002 142.44 239.62000000000003 142.96 241.23000000000002 143.05 L 240.92000000000002 148.62 z M 262.1 149.78 C 259.8 149.74 257.65000000000003 149.27 255.63000000000002 148.36 C 253.62000000000003 147.45000000000002 251.86 146.23000000000002 250.36 144.70000000000002 C 248.86 143.17000000000002 247.69000000000003 141.4 246.84 139.38000000000002 C 245.99 137.36 245.59 135.22000000000003 245.62 132.97000000000003 C 245.66 130.67000000000002 246.13 128.52000000000004 247.04 126.53000000000003 C 247.95 124.54000000000003 249.17999999999998 122.80000000000003 250.73 121.32000000000004 C 252.28 119.84000000000003 254.07 118.68000000000004 256.12 117.83000000000004 C 258.16 116.98000000000005 260.33 116.58000000000004 262.63 116.62000000000005 C 264.89 116.66000000000005 267.02 117.13000000000005 269.04 118.04000000000005 C 271.05 118.95000000000005 272.8 120.17000000000004 274.28000000000003 121.70000000000005 C 275.76000000000005 123.23000000000005 276.92 125.00000000000004 277.77000000000004 127.02000000000004 C 278.61 129.04000000000005 279.02000000000004 131.20000000000005 278.98 133.50000000000003 C 278.94 135.76000000000002 278.47 137.88000000000002 277.56 139.87000000000003 C 276.65 141.86000000000004 275.43 143.60000000000002 273.9 145.08000000000004 C 272.37 146.56000000000003 270.59 147.72000000000003 268.54999999999995 148.57000000000005 C 266.50999999999993 149.42000000000004 264.35999999999996 149.82000000000005 262.09999999999997 149.79000000000005 z M 262.53000000000003 122.51 C 261.03000000000003 122.49000000000001 259.6 122.75 258.26000000000005 123.29 C 256.91 123.83000000000001 255.74000000000004 124.58000000000001 254.74000000000004 125.53 C 253.74000000000004 126.47 252.94000000000003 127.59 252.33000000000004 128.88 C 251.72000000000003 130.17 251.41000000000005 131.56 251.39000000000004 133.07 C 251.37000000000003 134.57 251.64000000000004 135.98 252.20000000000005 137.28 C 252.76000000000005 138.58 253.53000000000006 139.74 254.50000000000006 140.73 C 255.47000000000006 141.73 256.62000000000006 142.51999999999998 257.94000000000005 143.10999999999999 C 259.27000000000004 143.69 260.68000000000006 143.99999999999997 262.19000000000005 144.01999999999998 C 263.69000000000005 144.04 265.11000000000007 143.77999999999997 266.44000000000005 143.23999999999998 C 267.77000000000004 142.7 268.93000000000006 141.93999999999997 269.93000000000006 140.98 C 270.93000000000006 140.01 271.7200000000001 138.89 272.30000000000007 137.6 C 272.89000000000004 136.31 273.19000000000005 134.92 273.2100000000001 133.41 C 273.2300000000001 131.9 272.9700000000001 130.5 272.4300000000001 129.19 C 271.8900000000001 127.89 271.1300000000001 126.75 270.16000000000014 125.77 C 269.1900000000001 124.78999999999999 268.0600000000001 124.00999999999999 266.7500000000001 123.42999999999999 C 265.4400000000001 122.85 264.04000000000013 122.53999999999999 262.5300000000001 122.52 z M 298 148.71 C 295.71 148.87 293.52 148.58 291.43 147.84 C 289.35 147.11 287.49 146.04 285.87 144.64000000000001 C 284.25 143.24 282.93 141.57000000000002 281.91 139.63000000000002 C 280.90000000000003 137.69000000000003 280.31 135.59000000000003 280.15000000000003 133.34000000000003 C 279.99 131.05000000000004 280.28000000000003 128.87000000000003 281.02000000000004 126.81000000000003 C 281.76000000000005 124.75000000000003 282.84000000000003 122.91000000000003 284.25000000000006 121.31000000000003 C 285.6700000000001 119.70000000000003 287.36000000000007 118.39000000000003 289.32000000000005 117.38000000000002 C 291.28000000000003 116.36000000000003 293.41 115.78000000000003 295.70000000000005 115.62000000000002 C 297.95000000000005 115.46000000000002 300.12000000000006 115.75000000000001 302.20000000000005 116.49000000000002 C 304.28000000000003 117.23000000000002 306.13000000000005 118.29000000000002 307.73 119.69000000000003 C 309.33000000000004 121.09000000000003 310.64000000000004 122.76000000000002 311.66 124.70000000000003 C 312.67 126.64000000000003 313.26000000000005 128.76000000000002 313.42 131.05000000000004 C 313.58000000000004 133.30000000000004 313.28000000000003 135.46000000000004 312.55 137.52000000000004 C 311.81 139.58000000000004 310.75 141.42000000000004 309.35 143.02000000000004 C 307.95000000000005 144.62000000000003 306.27000000000004 145.94000000000003 304.31 146.95000000000005 C 302.35 147.97000000000006 300.24 148.55000000000004 297.99 148.71000000000004 z M 296.12 121.5 C 294.62 121.61 293.22 121.99 291.93 122.64 C 290.63 123.29 289.53000000000003 124.14 288.62 125.16 C 287.71 126.19 287 127.36999999999999 286.51 128.7 C 286.01 130.03 285.82 131.45 285.92 132.95 C 286.02000000000004 134.45 286.41 135.82999999999998 287.09000000000003 137.07999999999998 C 287.76000000000005 138.32999999999998 288.62 139.42 289.67 140.32999999999998 C 290.72 141.23999999999998 291.93 141.92999999999998 293.3 142.39999999999998 C 294.67 142.86999999999998 296.11 143.04999999999998 297.61 142.95 C 299.11 142.85 300.5 142.47 301.77000000000004 141.81 C 303.05 141.16 304.14000000000004 140.31 305.05 139.26 C 305.96000000000004 138.20999999999998 306.65000000000003 137.01999999999998 307.13 135.69 C 307.6 134.35999999999999 307.79 132.94 307.68 131.44 C 307.58 129.94 307.2 128.56 306.55 127.31 C 305.90000000000003 126.05 305.05 124.98 304 124.09 C 302.95 123.2 301.75 122.52000000000001 300.4 122.04 C 299.04999999999995 121.57000000000001 297.62 121.38000000000001 296.12 121.49000000000001 z" stroke-linecap="round" />
</g>
</g>
</g>
</g>
</g>
</svg>