<?xml version="1.0" encoding="UTF-8" standalone="no" ?>
<!DOCTYPE svg PUBLIC "-//W3C//DTD SVG 1.1//EN" "http://www.w3.org/Graphics/SVG/1.1/DTD/svg11.dtd">
<svg xmlns="http://www.w3.org/2000/svg" xmlns:xlink="http://www.w3.org/1999/xlink" version="1.1" width="42.76777" height="36" viewBox="-0.42965029748125616 -0.42342962958614017 23.839300594962513 20.06685925917228" xml:space="preserve">
<desc>Created with Fabric.js 4.6.0</desc>
<defs>
</defs>
<g transform="matrix(0.33 0 0 0.33 11.49 9.61)" id="xHsXnD8lo8FYzWeLr5ZKM"  >
<path style="stroke: none; stroke-width: 1; stroke-dasharray: none; stroke-linecap: butt; stroke-dashoffset: 0; stroke-linejoin: miter; stroke-miterlimit: 4; fill: rgb(0,0,0); fill-rule: evenodd; opacity: 1;" vector-effect="non-scaling-stroke"  transform=" translate(-34.58, -28.92)" d="M 0 26.6 C 0 28.39 1.98 28.720000000000002 3.77 29.32 C 5.28 29.830000000000002 6.93 30.330000000000002 8.5 30.81 L 15.629999999999999 33.01 C 18.89 34.07 17.61 34.089999999999996 20.5 32.379999999999995 C 21.36 31.869999999999994 22.05 31.409999999999997 22.92 30.879999999999995 L 27.650000000000002 27.909999999999997 C 30.680000000000003 25.919999999999998 34.06 23.979999999999997 37.14 21.989999999999995 C 37.93 21.479999999999993 38.71 21.029999999999994 39.47 20.529999999999994 C 40.26 19.999999999999993 41.05 19.549999999999994 41.87 19.019999999999992 C 43.46 17.98999999999999 45 17.05999999999999 46.599999999999994 16.049999999999994 L 51.349999999999994 13.099999999999994 C 52.099999999999994 12.649999999999995 57.029999999999994 9.059999999999995 57.029999999999994 10.939999999999994 C 57.029999999999994 11.309999999999993 56.24999999999999 11.949999999999994 55.98 12.189999999999994 L 49.36 18.139999999999993 C 49.07 18.389999999999993 48.98 18.409999999999993 48.68 18.679999999999993 L 46.86 20.369999999999994 C 46.57 20.639999999999993 46.47 20.659999999999993 46.18 20.909999999999993 L 31.509999999999998 34.07999999999999 C 31.299999999999997 34.279999999999994 31.189999999999998 34.419999999999995 30.97 34.62999999999999 C 30.669999999999998 34.91999999999999 30.599999999999998 34.91999999999999 30.299999999999997 35.16999999999999 L 27.809999999999995 37.40999999999999 C 27.279999999999994 37.82999999999999 27.019999999999996 38.01999999999999 27.009999999999994 38.90999999999999 L 25.939999999999994 54.18999999999999 C 27.669999999999995 54.18999999999999 28.329999999999995 53.47999999999999 29.489999999999995 52.46999999999999 C 30.659999999999997 51.43999999999999 31.009999999999994 50.81999999999999 32.529999999999994 49.55999999999999 C 32.769999999999996 49.359999999999985 32.919999999999995 49.179999999999986 33.13999999999999 48.95999999999999 C 33.57999999999999 48.51999999999999 33.919999999999995 48.179999999999986 34.35999999999999 47.73999999999999 L 36.88999999999999 45.40999999999999 L 49.31999999999999 54.46999999999999 C 49.919999999999995 54.919999999999995 50.489999999999995 55.309999999999995 51.11999999999999 55.779999999999994 L 52.83999999999999 57.029999999999994 C 53.39999999999999 57.379999999999995 54.319999999999986 57.709999999999994 55.18999999999999 57.8 C 56.959999999999994 57.98 58.00999999999999 56.3 58.42999999999999 54.93 L 60.599999999999994 44.8 C 62.839999999999996 34.75 64.88 24.439999999999998 67.11 14.409999999999997 C 67.35 13.329999999999997 69.19 5.019999999999996 69.19 4.059999999999997 C 69.19 2.079999999999997 68.78 0.2399999999999971 66.32 0.03999999999999737 C 65.3 -0.050000000000002626 62.629999999999995 1.0899999999999974 61.61999999999999 1.4899999999999973 C 60.11999999999999 2.089999999999997 58.66999999999999 2.5999999999999974 57.11999999999999 3.2099999999999973 C 55.58999999999999 3.8099999999999974 54.18999999999999 4.359999999999998 52.639999999999986 4.9499999999999975 C 47.09999999999999 7.059999999999997 40.18999999999998 9.579999999999998 34.73999999999999 11.779999999999998 L 12.359999999999989 20.349999999999998 C 10.81999999999999 20.97 9.399999999999988 21.45 7.859999999999989 22.069999999999997 C 5.769999999999989 22.909999999999997 -0.02000000000001112 24.519999999999996 -0.02000000000001112 26.629999999999995 z" stroke-linecap="round" />
</g>
</svg>