<?xml version="1.0" encoding="UTF-8" standalone="no" ?>
<!DOCTYPE svg PUBLIC "-//W3C//DTD SVG 1.1//EN" "http://www.w3.org/Graphics/SVG/1.1/DTD/svg11.dtd">
<svg xmlns="http://www.w3.org/2000/svg" xmlns:xlink="http://www.w3.org/1999/xlink" version="1.1" width="50.89901" height="30" viewBox="-0.4695999999999998 -0.48186506574489485 23.7592 14.003730131489789" xml:space="preserve">
<desc>Created with Fabric.js 4.6.0</desc>
<defs>
</defs>
<g transform="matrix(0.18 0 0 0.18 11.41 6.52)" id="LuadZw_7VAnT8YEl7UT8O"  >
<path style="stroke: none; stroke-width: 1; stroke-dasharray: none; stroke-linecap: butt; stroke-dashoffset: 0; stroke-linejoin: miter; stroke-miterlimit: 4; fill: rgb(0,0,0); fill-rule: evenodd; opacity: 1;" vector-effect="non-scaling-stroke"  transform=" translate(-63.22, -36.13)" d="M 41.98 5.24 C 43.76 5.390000000000001 45.169999999999995 5.98 46.39 6.76 C 47.82 7.68 48.2 8.49 48.75 10.33 C 50.52 16.29 49.8 23.34 49.15 29.439999999999998 C 49 30.889999999999997 48.75 32.03 48.24 33.22 C 47.72 34.42 47.440000000000005 34.86 46.690000000000005 35.129999999999995 C 44.00000000000001 36.10999999999999 41.330000000000005 32.97 39.93000000000001 31.239999999999995 C 37.96000000000001 28.809999999999995 35.720000000000006 24.819999999999993 34.24000000000001 21.859999999999992 C 33.59000000000001 20.569999999999993 33.040000000000006 19.729999999999993 32.43000000000001 18.48999999999999 L 27.570000000000007 8.27999999999999 C 26.950000000000006 6.889999999999991 26.750000000000007 5.94999999999999 25.750000000000007 4.90999999999999 C 23.510000000000005 2.5799999999999903 21.760000000000005 3.2599999999999905 17.78000000000001 3.2599999999999905 C 15.820000000000007 3.2599999999999905 4.180000000000009 3.1099999999999905 2.800000000000008 3.3499999999999903 C 2.040000000000008 3.47999999999999 1.5100000000000078 3.6999999999999904 1.0100000000000078 4.0299999999999905 C 0.4100000000000078 4.41999999999999 0.10000000000000775 4.939999999999991 7.771561172376096e-15 5.53999999999999 L 7.771561172376096e-15 6.61999999999999 C 0.2600000000000078 8.42999999999999 1.6100000000000079 10.53999999999999 2.120000000000008 11.76999999999999 C 5.390000000000008 19.679999999999993 11.120000000000008 29.93999999999999 15.760000000000009 37.63999999999999 C 18.59000000000001 42.339999999999996 25.640000000000008 52.22999999999999 29.08000000000001 55.92999999999999 C 31.86000000000001 58.919999999999995 33.67000000000001 60.879999999999995 37.44000000000001 63.36999999999999 C 40.63000000000001 65.47999999999999 43.820000000000014 67.69 47.45000000000001 69.16999999999999 C 55.41000000000001 72.41999999999999 59.87000000000001 71.91999999999999 68.41000000000001 71.91999999999999 C 74.71000000000001 71.91999999999999 73.81000000000002 68.01999999999998 74.10000000000001 64.27999999999999 C 74.25000000000001 62.40999999999999 74.71000000000001 60.37999999999999 75.4 58.90999999999999 C 75.76 58.12999999999999 76.21000000000001 57.389999999999986 76.74000000000001 56.78999999999999 C 79.29 53.90999999999999 81.85000000000001 55.85999999999999 84.19000000000001 58.11999999999999 L 88.80000000000001 63.139999999999986 C 90.60000000000001 65.46999999999998 94.93 69.65999999999998 97.79 70.93999999999998 C 102.72 73.13999999999999 108.27000000000001 71.89999999999998 113.10000000000001 71.92999999999998 C 117.97000000000001 71.95999999999998 126.44000000000001 72.81999999999998 126.44000000000001 68.22999999999998 C 126.44000000000001 65.32999999999997 124.96000000000001 63.81999999999998 123.83000000000001 61.949999999999974 C 121.88000000000001 58.71999999999998 113.97000000000001 50.71999999999997 111.07000000000001 48.03999999999998 C 108.92 46.049999999999976 105.94000000000001 43.81999999999998 105.94000000000001 40.56999999999998 C 105.94000000000001 37.66999999999998 112.72000000000001 29.55999999999998 115.15 26.31999999999998 C 118.26 22.149999999999977 133.70000000000002 3.27999999999998 122.24000000000001 3.27999999999998 C 119.64000000000001 3.27999999999998 100.4 3.10999999999998 98.63000000000001 3.6199999999999797 C 97.00000000000001 4.09999999999998 96.21000000000001 6.52999999999998 95.58000000000001 7.97999999999998 C 94.04 11.469999999999981 92.74000000000001 14.95999999999998 90.78000000000002 18.23999999999998 C 87.74000000000001 23.30999999999998 85.82000000000002 27.09999999999998 81.86000000000001 31.78999999999998 C 75.97000000000001 38.759999999999984 73.84000000000002 33.829999999999984 73.85000000000001 25.999999999999982 L 74.31 7.259999999999984 C 73.8 2.379999999999984 72.22 1.249999999999984 68.17 0.5499999999999838 C 63.14 -0.32000000000001616 52 -0.09000000000001618 47.24 0.8699999999999839 C 45.190000000000005 1.2799999999999838 42.04 2.8099999999999836 41.99 5.249999999999984 z" stroke-linecap="round" />
</g>
</svg>