<?xml version="1.0" encoding="UTF-8" standalone="no" ?>
<!DOCTYPE svg PUBLIC "-//W3C//DTD SVG 1.1//EN" "http://www.w3.org/Graphics/SVG/1.1/DTD/svg11.dtd">
<svg xmlns="http://www.w3.org/2000/svg" xmlns:xlink="http://www.w3.org/1999/xlink" version="1.1" width="36" height="36.20909" viewBox="-0.44798681195674206 -0.4510506025820771 21.715973623913484 21.842101205164155" xml:space="preserve">
<desc>Created with Fabric.js 4.6.0</desc>
<defs>
</defs>
<g transform="matrix(0.53 0 0 0.53 10.41 10.47)" id="3OQoeKdc8jzGHfIfEoKNK"  >
<path style="stroke: none; stroke-width: 1; stroke-dasharray: none; stroke-linecap: butt; stroke-dashoffset: 0; stroke-linejoin: miter; stroke-miterlimit: 4; fill: rgb(0,0,0); fill-rule: evenodd; opacity: 1;" vector-effect="non-scaling-stroke"  transform=" translate(-19.54, -19.66)" d="M 4.74 34.57 L 4.74 34.57 z M 24.21 28.84 C 25.8 28.84 26.62 28.76 27.97 27.78 C 28.88 27.12 29.32 26.44 29.439999999999998 25.150000000000002 C 29.56 23.92 29.439999999999998 24.01 28.519999999999996 23.55 C 28.199999999999996 23.39 27.939999999999998 23.26 27.649999999999995 23.11 L 24.819999999999993 21.84 C 24.209999999999994 21.72 23.939999999999994 22.33 23.39999999999999 23.03 C 22.14999999999999 24.64 22.32999999999999 24.92 19.00999999999999 22.92 C 18.56999999999999 22.650000000000002 18.13999999999999 22.290000000000003 17.74999999999999 21.98 C 16.93999999999999 21.330000000000002 15.08999999999999 19.14 14.79999999999999 18.3 C 14.63999999999999 17.830000000000002 15.11999999999999 17.46 15.51999999999999 16.95 C 16.81999999999999 15.29 16.46999999999999 15.549999999999999 15.589999999999991 13.35 C 15.309999999999992 12.65 15.079999999999991 12.07 14.78999999999999 11.37 C 14.44999999999999 10.559999999999999 14.20999999999999 10.44 12.93999999999999 10.44 C 10.87999999999999 10.43 9.079999999999991 13.91 9.899999999999991 16.67 C 9.999999999999991 17.01 10.119999999999992 17.380000000000003 10.249999999999991 17.71 C 10.68999999999999 18.87 11.639999999999992 20.150000000000002 12.36999999999999 21.16 C 12.55999999999999 21.42 12.77999999999999 21.66 12.98999999999999 21.93 C 13.54999999999999 22.65 14.08999999999999 23.12 14.609999999999989 23.74 L 16.47999999999999 25.389999999999997 C 17.61999999999999 26.319999999999997 17.88999999999999 26.4 18.97999999999999 27.059999999999995 C 19.51999999999999 27.389999999999993 21.28999999999999 28.089999999999996 21.90999999999999 28.299999999999994 C 22.51999999999999 28.509999999999994 23.489999999999988 28.839999999999993 24.22999999999999 28.839999999999993 z M 4.740000000000002 34.57 L 4.740000000000002 34.57 z M 2.700000000000002 29.17 L 0.31000000000000183 37.99 C 0.22000000000000183 38.330000000000005 0.01000000000000184 38.89 1.8318679906315083e-15 39.32 L 4.790000000000002 38.06 C 6.450000000000002 37.650000000000006 8.030000000000001 37.2 9.650000000000002 36.78 C 10.630000000000003 36.53 10.150000000000002 36.620000000000005 11.780000000000001 37.35 C 15.63 39.08 19.880000000000003 39.4 24.020000000000003 38.46 C 26.540000000000003 37.89 28.640000000000004 36.89 30.690000000000005 35.480000000000004 C 32.43000000000001 34.290000000000006 34.330000000000005 32.410000000000004 35.53 30.670000000000005 C 36.18 29.720000000000006 36.82 28.680000000000007 37.300000000000004 27.610000000000007 C 37.78 26.540000000000006 38.260000000000005 25.290000000000006 38.540000000000006 24.020000000000007 C 39.080000000000005 21.510000000000005 39.24000000000001 19.660000000000007 38.93000000000001 17.070000000000007 C 38.400000000000006 12.690000000000008 36.43000000000001 8.770000000000007 33.36000000000001 5.700000000000008 C 33.120000000000005 5.460000000000008 32.910000000000004 5.220000000000008 32.660000000000004 5.010000000000009 C 27.030000000000005 0.06000000000000849 19.42 -1.4099999999999913 12.270000000000003 1.4300000000000086 C 11.910000000000004 1.5700000000000087 11.660000000000004 1.7100000000000086 11.300000000000002 1.8500000000000085 C 10.950000000000003 1.9900000000000087 10.710000000000003 2.1700000000000084 10.330000000000002 2.3600000000000083 C 8.600000000000001 3.220000000000008 6.900000000000002 4.650000000000008 5.540000000000002 5.990000000000008 C 4.770000000000001 6.750000000000008 3.610000000000002 8.330000000000009 3.040000000000002 9.220000000000008 C 2.850000000000002 9.520000000000008 2.6900000000000017 9.800000000000008 2.530000000000002 10.100000000000009 C 2.360000000000002 10.450000000000008 2.180000000000002 10.680000000000009 2.0200000000000022 11.06000000000001 C 1.4400000000000022 12.43000000000001 0.9100000000000021 13.68000000000001 0.5800000000000023 15.260000000000009 C 0.050000000000002265 17.800000000000008 -0.019999999999997686 20.28000000000001 0.41000000000000225 22.860000000000007 C 0.5500000000000023 23.670000000000005 0.7700000000000022 24.450000000000006 0.9700000000000023 25.170000000000005 C 1.2900000000000023 26.320000000000004 1.8900000000000023 27.630000000000006 2.4300000000000024 28.700000000000006 C 2.480000000000002 28.790000000000006 2.7000000000000024 29.150000000000006 2.7000000000000024 29.160000000000007 z" stroke-linecap="round" />
</g>
</svg>